<svg height="180pt" preserveAspectRatio="xMidYMid meet" viewBox="0 0 180 180" width="180pt" xmlns="http://www.w3.org/2000/svg"><path d="m0 900v-900h900 900v900 900h-900-900zm770 488c61-42 75-71 79-164l3-84h-101-101v45c0 52-16 65-79 65-60 0-71-17-71-113 0-131-7-124 124-129 135-5 184-26 216-93 18-37 20-61 20-221 0-208-10-244-76-285-37-23-47-24-199-24-130 0-166 3-190 17-71 39-95 92-95 209v79h100 100v-51c0-79 9-89 84-89 49 0 65 4 70 16 12 31 7 221-6 232-7 6-66 12-130 14-134 4-158 14-195 88-21 41-23 58-23 210s2 169 23 210c12 25 37 55 56 67 32 22 44 23 196 23s164-1 195-22zm730-63c0-75-1-78-145-415-80-186-145-342-145-345s65-5 145-5h145v-80-80h-260-260v68c0 64 6 82 150 417l149 350-144 3-145 3v79 80h255 255z" transform="matrix(.1 0 0 -.1 0 180)"/></svg>